# xmcd
#
# Track frame offsets:
# 150
# 17975
# 38548
# 57497
# 74937
# 93321
# 117047
# 131813
# 149069
# 163554
#
# Disc length: 2581 seconds
#
#
# Revision: 1
# Processed by: cddbd v1.5.2PL0 Copyright (c) Steve Scherf et al.
# Submitted via: FreeRIP 2.96 
#
DISCID=960a130a
DTITLE=Element Of Crime - Mittelpunkt Der Welt
DYEAR=2005
DGENRE=
TTITLE0=Delmenhorst
TTITLE1=Wenn Der Wind Kommt
TTITLE2=Strassenbahn Des Todes
TTITLE3=Im Himmel Ist Kein Platz Mehr Für Uns Zwei
TTITLE4=Nur Mit Dir
TTITLE5=Finger Weg Von Meiner Paranoia
TTITLE6=Still Wird Das Echo Sein
TTITLE7=Weit Ist Der Weg
TTITLE8=Die Letzte U-Bahn Geht Später
TTITLE9=Mittelpunkt Der Welt
EXTD=
EXTT0=
EXTT1=
EXTT2=
EXTT3=
EXTT4=
EXTT5=
EXTT6=
EXTT7=
EXTT8=
EXTT9=
PLAYORDER=
